<svg width="28" height="23" viewBox="0 0 28 23" fill="none" xmlns="http://www.w3.org/2000/svg">
<path fill-rule="evenodd" clip-rule="evenodd" d="M25.8018 12.9607V4.13257C25.8018 1.9458 24.1626 0.164062 21.978 0.164062H4.57617C2.39111 0.245117 0.752441 1.9458 0.752441 4.13257V16.6863C0.752441 18.873 2.39111 20.6548 4.57617 20.6548H18.2324C19.2466 21.8696 20.8071 22.6794 22.4463 22.6794C25.4116 22.6794 27.7524 20.1687 27.7524 17.0911V17.0103C27.7524 15.4714 26.9722 13.9324 25.8018 12.9607ZM4.57617 19.6829C3.01562 19.6829 1.76709 18.387 1.76709 16.7673V4.13281C1.76709 2.59399 3.01562 1.21704 4.57617 1.21704V1.2981H22.0562C23.6167 1.2981 24.8652 2.59399 24.8652 4.21362V12.3127C24.085 11.9077 23.2266 11.6648 22.3682 11.6648C19.4028 11.6648 17.062 14.2566 17.062 17.3342C17.062 17.7112 17.1128 18.0881 17.1982 18.4568C17.2964 18.8804 17.4409 19.2932 17.6079 19.6829H4.57617ZM22.29 21.7078C24.709 21.7078 26.6597 19.7639 26.7378 17.2532C26.7378 15.5525 25.8013 13.9326 24.3188 13.1226C24.0171 12.9436 23.668 12.8142 23.2974 12.7341C22.9966 12.6692 22.6821 12.6367 22.3677 12.6367C19.9487 12.6367 17.998 14.5806 17.9199 17.0913C17.9199 17.4961 17.998 17.9011 18.0762 18.2251C18.5444 20.0879 20.3389 21.7078 22.29 21.7078Z" fill="white"/>
<path d="M19.2524 11.4218C19.5382 11.4218 19.7524 11.1907 19.7524 10.9596V4.79704C19.7524 4.48891 19.5382 4.25781 19.2524 4.25781C18.9667 4.25781 18.7524 4.48891 18.7524 4.79704V10.8826C18.8239 11.1907 19.0382 11.4218 19.2524 11.4218Z" fill="white"/>
<path d="M22.2524 19.6091C22.5382 19.6091 22.7524 19.3692 22.7524 19.1294V15.0516C22.7524 14.7318 22.5382 14.4919 22.2524 14.4919C21.9667 14.4919 21.7524 14.7318 21.7524 15.0516V19.0494C21.7524 19.3692 21.9667 19.6091 22.2524 19.6091Z" fill="white"/>
<path d="M19.7524 17.0505C19.7524 17.3429 19.9868 17.5622 20.2212 17.5622H24.2056C24.5181 17.5622 24.7524 17.3429 24.7524 17.0505C24.7524 16.7581 24.5181 16.5388 24.2056 16.5388H20.2993C19.9868 16.5388 19.7524 16.7581 19.7524 17.0505Z" fill="white"/>
<path d="M13.2524 4.25781C12.9667 4.25781 12.7524 4.49826 12.7524 4.81885V17.0014C12.7524 17.3219 12.9667 17.5624 13.2524 17.5624C13.5382 17.5624 13.7524 17.3219 13.7524 17.0014V4.7387C13.7524 4.49826 13.5382 4.25781 13.2524 4.25781Z" fill="white"/>
<path d="M7.25244 4.25781C6.96673 4.25781 6.75244 4.49826 6.75244 4.81885V17.0014C6.75244 17.3219 6.96673 17.5624 7.25244 17.5624C7.53816 17.5624 7.75244 17.3219 7.75244 17.0014V4.7387C7.68101 4.49826 7.53816 4.25781 7.25244 4.25781Z" fill="white"/>
</svg>
