<svg width="26" height="24" viewBox="0 0 26 24" fill="none" xmlns="http://www.w3.org/2000/svg">
<path fill-rule="evenodd" clip-rule="evenodd" d="M24.4444 6.42456C24.7144 6.5249 25.0332 6.37427 25.1314 6.09814C25.499 5.04395 25.4746 4.21558 25.0576 3.58789C24.3462 2.60889 22.7031 2.53369 20.2744 3.36206C18.3858 1.75537 15.9575 0.776367 13.3086 0.776367C7.2256 0.776367 2.27053 5.92261 2.27053 12.2234C2.27053 13.6543 2.54055 15.0349 3.00637 16.3152C1.26515 18.5996 0.455584 20.658 1.28957 21.8379C1.65773 22.365 2.31984 22.6411 3.22756 22.6411C3.42336 22.6411 3.61965 22.6411 3.81594 22.6162C3.98439 22.6018 4.12062 22.5054 4.20168 22.3689C4.24269 22.3008 4.26955 22.2227 4.2798 22.1396C4.28469 22.0986 4.28566 22.0564 4.28224 22.0137C4.25685 21.8582 4.17922 21.7295 4.06984 21.6448C3.96681 21.5652 3.83596 21.5244 3.69338 21.5366C2.90871 21.6372 2.34426 21.5115 2.12355 21.2104C1.73097 20.658 2.17238 19.3025 3.47267 17.47C5.28762 21.1602 9.01613 23.6956 13.2842 23.6956C19.3672 23.6956 24.3218 18.5493 24.3218 12.2485C24.3218 9.13574 23.1201 6.29907 21.1577 4.24072C22.9727 3.68823 23.9048 3.86401 24.1992 4.26562C24.4444 4.61719 24.2974 5.24463 24.1255 5.72168C24.0274 5.9978 24.1748 6.32422 24.4444 6.42456ZM21.4278 6.44971C21.4766 6.44971 21.501 6.42456 21.5503 6.42456C22.5806 8.0061 23.2183 9.86377 23.2671 11.897H19.0728C19.0239 9.98926 18.6314 8.13159 17.9199 6.44971H21.4278ZM11.1499 9.91406C10.2671 10.5918 9.45754 11.2444 8.7217 11.897H18.0425C17.9937 9.96411 17.5518 8.10645 16.7915 6.44971H16.3257C14.6328 7.40356 12.8672 8.5835 11.1499 9.91406ZM9.8257 6.44971H14.2163C12.9898 7.22778 11.7388 8.0813 10.5127 9.0354C9.90529 9.50757 9.29787 10.0046 8.69045 10.5017L8.67287 10.5164C8.84474 9.08545 9.23683 7.70483 9.8257 6.44971ZM8.59914 12.9766C8.69728 14.9346 9.21242 16.7922 10.022 18.4238H16.5708C17.4048 16.7922 17.8955 14.9346 17.9937 12.9766H8.59914ZM19.0728 12.9766H23.2671C23.1196 15.01 22.4087 16.8926 21.3047 18.4238H17.7481C18.5083 16.7671 18.9746 14.9094 19.0728 12.9766ZM20.397 19.5283H17.2085C16.5708 20.6328 15.8101 21.6118 14.9273 22.4653C17.0366 22.0889 18.9497 21.0344 20.397 19.5283ZM10.6348 19.5283H15.9575C15.2461 20.658 14.3384 21.637 13.3086 22.4153C12.2534 21.637 11.3706 20.658 10.6348 19.5283ZM11.6895 22.4404C10.8067 21.6121 10.0215 20.6079 9.40822 19.5034H6.21974C7.66701 21.0347 9.55568 22.0891 11.6895 22.4404ZM5.65578 18.4238C5.53322 18.4238 5.43508 18.4741 5.36135 18.5244C5.08742 18.135 4.83254 17.7263 4.60256 17.2983C4.46144 17.0364 4.32961 16.7673 4.20851 16.491C5.0425 15.4116 6.1465 14.2317 7.49513 12.9766H7.52004C7.61818 14.9094 8.084 16.7671 8.84426 18.4238H5.65578ZM3.76711 15.3613C4.42922 14.583 5.16506 13.7798 5.97463 13.0017H3.57082C3.49709 13.0017 3.42385 12.9766 3.35012 12.9514C3.39894 13.7546 3.5464 14.583 3.76711 15.3613ZM3.3257 11.9724C3.37453 9.93896 4.01271 8.03125 5.0425 6.44971H5.14064H8.67287C8.03517 8.03125 7.61818 9.73828 7.54445 11.5205C7.4717 11.5825 7.4048 11.6445 7.33791 11.7065L7.23976 11.7974C7.20363 11.8306 7.16652 11.8638 7.12746 11.897H3.57082C3.52199 11.897 3.47951 11.9033 3.43947 11.9158C3.41603 11.9231 3.39357 11.9326 3.3716 11.9443C3.35597 11.9526 3.34084 11.9619 3.3257 11.9724ZM5.85207 5.37036H9.18801C9.85012 4.11499 10.6841 2.98535 11.69 2.05664C9.3843 2.43311 7.34816 3.63818 5.85207 5.37036ZM10.4141 5.34521C11.1743 4.06494 12.1558 2.9353 13.3086 2.08179C14.4365 2.9353 15.3936 4.01465 16.1538 5.26978C16.1045 5.29492 16.0801 5.32007 16.0313 5.34521H10.4141ZM14.9029 2.03149C15.7368 2.83472 16.4727 3.76367 17.086 4.79272C17.7725 4.44141 18.4595 4.11499 19.1216 3.83887C17.8955 2.91016 16.4483 2.28247 14.9029 2.03149ZM19.8086 4.71753C19.9068 4.66748 19.98 4.64233 20.0537 4.61719C20.2881 4.83252 20.4995 5.0708 20.7315 5.33203L20.7652 5.37036H18.3613C18.8521 5.11914 19.3423 4.91846 19.8086 4.71753Z" fill="white"/>
</svg>
