<svg width="23" height="24" viewBox="0 0 23 24" fill="none" xmlns="http://www.w3.org/2000/svg">
<path fill-rule="evenodd" clip-rule="evenodd" d="M21.9241 13.6756C21.9796 13.2267 22.0078 12.7747 22.0084 12.3222C22.0086 10.1021 21.336 7.93653 20.0833 6.12398C20.6226 5.3742 20.5441 4.3333 19.8988 3.67706C17.6712 1.39512 14.6478 0.114188 11.496 0.116948C8.34419 0.119708 5.323 1.40593 3.09918 3.69177C2.46315 4.35019 2.38438 5.38228 2.9128 6.13379C1.40031 8.32221 0.745267 11.0118 1.07721 13.6707C-0.109567 15.2235 -0.334645 17.3303 0.496212 19.1089C1.32707 20.8875 3.07051 22.0311 4.99658 22.0609C5.41428 22.746 6.1471 23.1628 6.93614 23.1642C7.06467 23.165 7.19299 23.1535 7.31945 23.1299C8.57442 22.9105 9.41938 21.6933 9.2087 20.4083L7.85129 12.131C7.66735 10.9953 6.70689 10.163 5.58209 10.1646C5.45378 10.1647 5.32565 10.1745 5.19877 10.194C4.28027 10.3545 3.54605 11.0643 3.33731 11.9937C2.8284 12.1799 2.35259 12.4499 1.92864 12.793C1.92145 12.636 1.91475 12.4791 1.91475 12.3222C1.91582 10.3264 2.51447 8.37883 3.63007 6.74184C4.32895 7.08343 5.16261 6.93378 5.70618 6.36917C7.23957 4.78911 9.32482 3.89932 11.5008 3.89656C13.6768 3.8938 15.7642 4.7783 17.3014 6.35445C17.8442 6.91238 18.6709 7.06149 19.3674 6.72713C20.4873 8.36789 21.0884 10.3208 21.0895 12.3222C21.0895 12.4791 21.0828 12.636 21.0756 12.793C20.6519 12.4497 20.1762 12.1797 19.6674 11.9937C19.4581 11.0644 18.7239 10.3548 17.8054 10.194C17.6785 10.1745 17.5504 10.1647 17.4221 10.1646C16.2975 10.1631 15.3374 10.9955 15.1539 12.131L13.7955 20.4083C13.5854 21.6931 14.4298 22.9098 15.6843 23.1299C15.8107 23.1534 15.9391 23.1649 16.0676 23.1642C16.8569 23.1633 17.59 22.7463 18.0076 22.0609C19.9323 22.0305 21.6741 20.8874 22.5043 19.1101C23.3344 17.3327 23.1097 15.2276 21.9241 13.6756ZM5.35117 11.1258C5.42785 11.1145 5.50513 11.1079 5.58259 11.1062C6.25743 11.1066 6.83293 11.6066 6.94287 12.288L8.30075 20.5654C8.42704 21.3364 7.92006 22.0666 7.1671 22.1983C6.57108 22.3012 5.97955 21.9924 5.711 21.4382L5.68944 21.3892C5.66618 21.338 5.64555 21.2856 5.62763 21.2323C5.60556 21.1683 5.58826 21.1027 5.57588 21.0361L4.21801 12.7587C4.20901 12.6921 4.20453 12.6249 4.20459 12.5577C4.20459 12.5037 4.20459 12.4498 4.21226 12.391L4.21705 12.3419C4.29398 11.7261 4.75365 11.2332 5.35117 11.1258ZM3.32464 13.0137L3.98825 17.0543L4.65186 21.0998C3.30642 20.9599 2.11205 20.1577 1.4513 18.9501C0.790544 17.7425 0.746343 16.2811 1.33285 15.034C1.54305 14.6563 1.78344 14.2971 2.05156 13.9601C2.41154 13.5626 2.84402 13.2411 3.32464 13.0137ZM17.9485 5.68269C16.2386 3.93122 13.9177 2.94835 11.4985 2.95111C9.07922 2.95387 6.76053 3.94203 5.05438 5.6974C4.69036 6.05533 4.11515 6.05533 3.75112 5.6974C3.3922 5.32867 3.3922 4.73233 3.75112 4.3636C5.80215 2.25451 8.58877 1.06716 11.4963 1.06349C14.4038 1.05981 17.1933 2.2401 19.2494 4.34399C19.6097 4.71406 19.6097 5.31261 19.2494 5.68269C18.886 6.03981 18.312 6.03981 17.9485 5.68269ZM15.8332 22.1983C15.0803 22.0666 14.5735 21.3363 14.7 20.5654L16.0579 12.288C16.1674 11.6067 16.7426 11.1066 17.4173 11.1062C17.495 11.1079 17.5726 11.1145 17.6496 11.1258C18.2455 11.2326 18.7046 11.7231 18.7833 12.337L18.7881 12.3861C18.7937 12.4431 18.7964 12.5004 18.7962 12.5577C18.7967 12.6249 18.7924 12.6921 18.7833 12.7587L17.4254 21.0361C17.4252 21.0377 17.4252 21.0394 17.4254 21.041C17.4138 21.1042 17.3978 21.1665 17.3775 21.2274C17.3595 21.2824 17.3385 21.3365 17.3147 21.3892L17.2893 21.448C17.0184 21.999 16.4271 22.3037 15.8332 22.1983ZM22.0217 17.5741C21.7192 19.4652 20.2121 20.9119 18.3486 21.0998L19.0122 17.0543L19.6758 13.0137C20.1554 13.2409 20.5876 13.5606 20.9489 13.9552C21.2441 14.2725 21.4869 14.6368 21.6676 15.034C22.039 15.823 22.1627 16.7103 22.0217 17.5741Z" fill="white"/>
</svg>
