<svg width="29" height="25" viewBox="0 0 29 25" fill="none" xmlns="http://www.w3.org/2000/svg">
<path fill-rule="evenodd" clip-rule="evenodd" d="M26.5691 2.30819C23.9833 -0.372116 19.776 -0.372116 17.1907 2.30819L15.8149 3.73436C15.3059 3.64312 14.7859 3.58577 14.2522 3.58577C13.7655 3.58577 13.2911 3.63679 12.8248 3.71292L11.3136 2.14644C10.066 0.85306 8.40074 0.140625 6.62423 0.140625C4.84809 0.140625 3.18287 0.85306 1.93516 2.14644C0.687187 3.4398 0 5.16601 0 7.00751C0 8.84869 0.687187 10.5748 1.93516 11.8683L14.2302 24.821L26.5691 12.03C27.8172 10.7366 28.5044 9.01041 28.5044 7.16926C28.5044 5.32774 27.8172 3.60152 26.5691 2.30819ZM5.11954 13.7967L2.59717 11.182C1.52622 10.0718 0.936185 8.5892 0.936185 7.0074C0.936185 5.42525 1.52622 3.94263 2.59717 2.83245C4.81701 0.53069 8.4306 0.530028 10.6517 2.83245L11.7375 3.95794C11.2358 4.10666 10.7539 4.30058 10.2911 4.53173L10.1775 4.41399C8.51045 2.68529 5.79689 2.68529 4.12982 4.41399C3.32491 5.24833 2.88181 6.36129 2.88181 7.54855C2.88181 8.73581 3.32491 9.84877 4.12982 10.6828L5.18308 11.7748C5.12527 12.2054 5.08489 12.6417 5.08489 13.0886C5.08489 13.3275 5.10278 13.5621 5.11954 13.7967ZM5.40627 10.6337L4.79172 9.99662C4.16399 9.3458 3.81807 8.47643 3.81807 7.54855C3.81807 6.62069 4.16399 5.7513 4.79172 5.10016C5.41987 4.44939 6.25859 4.09083 7.15367 4.09083C8.00945 4.09083 8.80836 4.42667 9.42625 5.02419C7.47496 6.2836 6.01578 8.27722 5.40627 10.6337ZM22.2284 15.1577L14.2303 23.4488L6.29163 15.2197C6.27568 15.1558 6.222 14.9396 6.222 14.9396C5.86052 13.4858 5.97556 11.9039 6.41716 10.4826C6.84535 9.1042 7.61886 7.86968 8.6268 6.8711C9.07452 6.4276 9.5647 6.01931 10.1168 5.7235C10.5297 5.50379 10.9374 5.26819 11.3718 5.09651C12.7801 4.53966 14.2606 4.46968 15.7419 4.71664C15.8696 4.7379 15.9971 4.75667 16.1233 4.7873C17.5189 5.12542 18.8261 5.85674 19.8714 6.8724C20.7229 7.6998 21.4024 8.71506 21.85 9.83239C22.4128 11.2373 22.597 12.7996 22.3963 14.3092C22.3783 14.4436 22.351 14.5768 22.3255 14.7098C22.3069 14.8073 22.295 15.0886 22.2284 15.1577ZM19.2497 5.13238L19.2808 5.10016C19.9321 4.42506 20.7872 4.08768 21.6427 4.08768C22.4979 4.08768 23.3533 4.42537 24.0045 5.10016C25.3066 6.45041 25.3066 8.64668 24.0045 9.99662L23.1579 10.8744C22.6041 8.48252 21.1814 6.44077 19.2497 5.13238ZM25.9072 11.3437L23.3765 13.9672C23.4023 13.6774 23.4194 13.3851 23.4194 13.0886C23.4194 12.7329 23.3969 12.3828 23.36 12.0371L24.6665 10.6828C26.3336 8.9547 26.3336 6.1424 24.6665 4.41399C22.9992 2.68529 20.2862 2.68595 18.6188 4.41399L18.4102 4.63023C17.926 4.37345 17.4199 4.15631 16.891 3.99109L17.8527 2.99423C20.0735 0.692416 23.6864 0.692416 25.9072 2.99423C26.9782 4.10444 27.5682 5.58703 27.5682 7.16915C27.5682 8.75095 26.9782 10.2336 25.9072 11.3437ZM16.4992 17.2963L16.7957 15.1035L15.0951 13.6493L17.2766 13.2131L17.9807 10.9403L19.069 13.0667L21.2428 13.0762L19.8038 14.7506L20.3834 16.9453L18.3299 15.9568L16.4992 17.2963ZM16.5147 14.0246L17.4626 14.8349L17.3178 15.9056L18.2653 15.2125L19.4265 15.7714L19.1125 14.5826L19.8562 13.7169L18.6929 13.7119L18.1227 12.5982L17.7581 13.776L16.5147 14.0246ZM11.9753 17.2963L10.1446 15.9568L8.09109 16.9453L8.67081 14.7506L7.23167 13.0762L9.40523 13.0667L10.4939 10.9403L11.1979 13.2131L13.3794 13.6493L11.6788 15.1035L11.9753 17.2963ZM10.2092 15.2125L11.1567 15.9056L11.012 14.8349L11.9598 14.0246L10.7164 13.776L10.3518 12.5982L9.78133 13.7119L8.61836 13.7169L9.36194 14.5826L9.04804 15.7714L10.2092 15.2125Z" fill="white"/>
</svg>
