<svg width="34" height="24" viewBox="0 0 34 24" fill="none" xmlns="http://www.w3.org/2000/svg">
<path fill-rule="evenodd" clip-rule="evenodd" d="M7.95562 23.7643C7.86897 23.7643 7.78264 23.7426 7.7046 23.7003C7.57998 23.6325 7.48743 23.5172 7.44705 23.3799C7.17568 22.4522 6.52797 21.6525 5.66967 21.1856C4.83692 20.7325 3.89884 20.6315 3.02811 20.901C2.74668 20.9873 2.45147 20.8283 2.36584 20.5444L0.0233006 12.7861C-0.062327 12.5026 0.095434 12.2023 0.375455 12.1157C2.2481 11.5362 3.33123 9.56064 2.78981 7.71166C2.70736 7.42926 2.86512 7.13213 3.14334 7.04578L25.3032 0.187091C25.4385 0.145837 25.5849 0.160177 25.7092 0.227603C25.8339 0.295388 25.9264 0.410778 25.9668 0.548191C26.2247 1.42962 26.8016 2.15177 27.5916 2.58134C28.4185 3.03115 29.3862 3.12062 30.3163 2.83194C30.4507 2.79036 30.5961 2.80429 30.7203 2.87146C30.8446 2.93814 30.9375 3.05215 30.9786 3.18846L33.326 10.9622C33.3674 11.0982 33.3537 11.2453 33.2873 11.3712C33.2211 11.497 33.1085 11.591 32.9745 11.6326C31.1716 12.1904 30.073 14.3327 30.624 16.2166C30.7065 16.4991 30.5487 16.7962 30.2705 16.8825L8.11063 23.7409C8.05987 23.7567 8.00773 23.7643 7.95562 23.7643ZM4.00721 19.6787C4.7478 19.6787 5.48842 19.8678 6.17171 20.2397C7.11733 20.7542 7.86551 21.5843 8.28188 22.5651L29.4864 16.0024C29.1155 13.8626 30.2501 11.6602 32.1666 10.7944L30.1109 3.98784C29.0693 4.18707 28.0142 4.03009 27.0896 3.52713C26.2057 3.04654 25.5245 2.28946 25.1316 1.36291L3.92646 7.92628C4.27787 10.0059 3.13688 12.1003 1.18408 12.957L3.23459 19.748C3.49041 19.7017 3.74899 19.6787 4.00721 19.6787ZM9.49409 19.5455C9.3529 19.5455 9.2151 19.4882 9.11364 19.3827C8.59122 18.8378 7.99254 18.383 7.33419 18.0303C6.71406 17.6972 6.05733 17.4596 5.38241 17.3239C5.19109 17.2852 5.03609 17.1432 4.97883 16.9542L4.18228 14.3173C4.12428 14.1251 4.17713 13.9161 4.31966 13.7756C5.34338 12.7668 6.03698 11.4939 6.32566 10.0951C6.36536 9.90351 6.50483 9.74868 6.68989 9.69135L10.0023 8.66587C10.0589 8.64802 10.1149 8.63965 10.1732 8.64244C10.2091 8.62075 10.2481 8.60257 10.2903 8.58969L13.6016 7.55195L23.7799 4.40167C23.9667 4.3429 24.1697 4.39468 24.3085 4.53409C24.7826 5.01093 25.3263 5.41529 25.925 5.73646C26.5679 6.0815 27.2539 6.32158 27.9648 6.45059C28.1606 6.48621 28.3201 6.62952 28.3784 6.82212L29.1829 9.48584C29.2399 9.67426 29.1902 9.87872 29.0538 10.0192C28.0507 11.0521 27.3471 12.4062 27.0726 13.8315C27.035 14.0262 26.8945 14.1842 26.7071 14.2422L16.5716 17.3792L13.3289 18.3453C13.2788 18.3855 13.2205 18.4169 13.1559 18.4369L9.6491 19.5221C9.59802 19.5379 9.54588 19.5455 9.49409 19.5455ZM5.90236 16.3404C6.56838 16.5026 7.21574 16.751 7.83064 17.0814C8.49111 17.4351 9.09913 17.8783 9.64186 18.4015L12.1809 17.6158C12.2355 17.569 12.3004 17.5326 12.3736 17.511L16.2667 16.3508L26.0994 13.3076C26.4277 11.9004 27.1199 10.569 28.0784 9.50123L27.4566 7.44252C26.7519 7.28416 26.071 7.0301 25.4282 6.68509C24.8334 6.3656 24.2847 5.97485 23.7937 5.52015L10.6038 9.61519C10.5461 9.63299 10.4826 9.63824 10.4312 9.63931C10.3949 9.66131 10.3548 9.67946 10.3124 9.69278L7.29307 10.6274C6.95264 12.0073 6.26592 13.2691 5.28919 14.3097L5.90236 16.3404ZM18.5437 14.3051L16.6748 13.3104L14.8056 14.3051L15.1626 12.1982L13.6507 10.706L15.7402 10.3985L16.6748 8.48131L17.6091 10.3985L19.6993 10.706L18.1867 12.1982L18.5437 14.3051ZM15.1698 11.2058L15.9221 11.948L15.7447 12.9965L16.6748 12.5015L17.6046 12.9965L17.4271 11.948L18.1794 11.2058L17.1395 11.0528L16.6748 10.0989L16.2098 11.0528L15.1698 11.2058Z" fill="white"/>
</svg>
